<?xml version="1.0" encoding="UTF-8" standalone="no"?><!DOCTYPE svg PUBLIC "-//W3C//DTD SVG 1.1//EN"
    "http://www.w3.org/Graphics/SVG/1.1/DTD/svg11.dtd"><!-- Generated by graphviz version 2.38.0 (20140413.2041) --><!-- Title: Components Pages: 1 -->
<svg width="918pt" height="278pt" viewBox="0.00 0.00 918.00 278.00" xmlns="http://www.w3.org/2000/svg"
>
    <g id="graph0" class="graph" transform="scale(1 1) rotate(0) translate(4 274)">
        <title>Components</title><!-- / -->
        <g id="node1" class="node">
            <title>/</title>
            <path fill="lightgrey" stroke="black" stroke-width="0.5"
                  d="M491,-233.5C491,-233.5 521,-233.5 521,-233.5 527,-233.5 533,-239.5 533,-245.5 533,-245.5 533,-257.5 533,-257.5 533,-263.5 527,-269.5 521,-269.5 521,-269.5 491,-269.5 491,-269.5 485,-269.5 479,-263.5 479,-257.5 479,-257.5 479,-245.5 479,-245.5 479,-239.5 485,-233.5 491,-233.5"/>
            <text text-anchor="middle" x="506" y="-247.8" font-family="sans-serif" font-size="14.00">/</text>
        </g><!-- /Units -->
        <g id="node2" class="node">
            <title>/Units</title>
            <text text-anchor="middle" x="193" y="-175.3" font-family="sans-serif" font-size="14.00">Units</text>
        </g><!-- /&#45;&gt;/Units -->
        <g id="edge1" class="edge">
            <title>/&#45;&gt;/Units</title>
            <path fill="none" stroke="darkgrey" stroke-width="0.5"
                  d="M478.771,-244.367C419.575,-231.034 279.73,-199.535 220.389,-186.169"/>
        </g><!-- /Core -->
        <g id="node8" class="node">
            <title>/Core</title>
            <text text-anchor="middle" x="506" y="-175.3" font-family="sans-serif" font-size="14.00">Core</text>
        </g><!-- /&#45;&gt;/Core -->
        <g id="edge7" class="edge">
            <title>/&#45;&gt;/Core</title>
            <path fill="none" stroke="darkgrey" stroke-width="0.5"
                  d="M506,-233.434C506,-222.513 506,-208.384 506,-197.399"/>
        </g><!-- /Content Elements -->
        <g id="node13" class="node">
            <title>/Content Elements</title>
            <text text-anchor="middle" x="772" y="-175.3" font-family="sans-serif" font-size="14.00">Content Elements
            </text>
        </g><!-- /&#45;&gt;/Content Elements -->
        <g id="edge12" class="edge">
            <title>/&#45;&gt;/Content Elements</title>
            <path fill="none" stroke="darkgrey" stroke-width="0.5"
                  d="M533.465,-243.221C574.68,-232.297 653.633,-211.372 709.394,-196.593"/>
        </g><!-- Units/Chapter (Tollwerk\\TwTollwerk\\Component\\Units\\ChapterComponent) -->
        <g id="node3" class="node">
            <title>Units/Chapter (Tollwerk\\TwTollwerk\\Component\\Units\\ChapterComponent)</title>
            <path fill="lightblue" stroke="black" stroke-width="0.5"
                  d="M12,-81C12,-81 62,-81 62,-81 68,-81 74,-87 74,-93 74,-93 74,-106 74,-106 74,-112 68,-118 62,-118 62,-118 12,-118 12,-118 6,-118 0,-112 0,-106 0,-106 0,-93 0,-93 0,-87 6,-81 12,-81"/>
            <text text-anchor="start" x="11" y="-96.8" font-family="sans-serif" font-weight="bold" font-size="14.00">
                Chapter
            </text>
        </g><!-- /Units&#45;&gt;Units/Chapter (Tollwerk\\TwTollwerk\\Component\\Units\\ChapterComponent) -->
        <g id="edge2" class="edge">
            <title>/Units&#45;&gt;Units/Chapter (Tollwerk\\TwTollwerk\\Component\\Units\\ChapterComponent)</title>
            <path fill="none" stroke="darkgrey" stroke-width="0.5"
                  d="M165.827,-164.501C139.9,-151.62 100.704,-132.148 72.3562,-118.065"/>
        </g><!-- Units/Image (Tollwerk\\TwTollwerk\\Component\\Units\\ImageComponent) -->
        <g id="node4" class="node">
            <title>Units/Image (Tollwerk\\TwTollwerk\\Component\\Units\\ImageComponent)</title>
            <path fill="lightblue" stroke="black" stroke-width="0.5"
                  d="M418,-0.5C418,-0.5 456,-0.5 456,-0.5 462,-0.5 468,-6.5 468,-12.5 468,-12.5 468,-25.5 468,-25.5 468,-31.5 462,-37.5 456,-37.5 456,-37.5 418,-37.5 418,-37.5 412,-37.5 406,-31.5 406,-25.5 406,-25.5 406,-12.5 406,-12.5 406,-6.5 412,-0.5 418,-0.5"/>
            <text text-anchor="start" x="417" y="-16.3" font-family="sans-serif" font-weight="bold" font-size="14.00">
                Image
            </text>
        </g><!-- /Units&#45;&gt;Units/Image (Tollwerk\\TwTollwerk\\Component\\Units\\ImageComponent) -->
        <g id="edge3" class="edge">
            <title>/Units&#45;&gt;Units/Image (Tollwerk\\TwTollwerk\\Component\\Units\\ImageComponent)</title>
            <path fill="none" stroke="darkgrey" stroke-width="0.5"
                  d="M165.923,-166.008C149.672,-157.212 130.385,-143.561 121,-125 110.773,-104.772 106.384,-91.3251 121,-74 157.291,-30.9808 333.475,-22.2306 405.858,-20.4526"/>
        </g><!-- Units/Lead (Tollwerk\\TwTollwerk\\Component\\Units\\LeadComponent) -->
        <g id="node5" class="node">
            <title>Units/Lead (Tollwerk\\TwTollwerk\\Component\\Units\\LeadComponent)</title>
            <path fill="lightblue" stroke="black" stroke-width="0.5"
                  d="M142,-81C142,-81 172,-81 172,-81 178,-81 184,-87 184,-93 184,-93 184,-106 184,-106 184,-112 178,-118 172,-118 172,-118 142,-118 142,-118 136,-118 130,-112 130,-106 130,-106 130,-93 130,-93 130,-87 136,-81 142,-81"/>
            <text text-anchor="start" x="141" y="-96.8" font-family="sans-serif" font-weight="bold" font-size="14.00">
                Lead
            </text>
        </g><!-- /Units&#45;&gt;Units/Lead (Tollwerk\\TwTollwerk\\Component\\Units\\LeadComponent) -->
        <g id="edge4" class="edge">
            <title>/Units&#45;&gt;Units/Lead (Tollwerk\\TwTollwerk\\Component\\Units\\LeadComponent)</title>
            <path fill="none" stroke="darkgrey" stroke-width="0.5"
                  d="M185.01,-160.8C179.127,-148.136 171.153,-130.968 165.217,-118.189"/>
        </g><!-- Units/Text (Tollwerk\\TwTollwerk\\Component\\Units\\TextComponent) -->
        <g id="node6" class="node">
            <title>Units/Text (Tollwerk\\TwTollwerk\\Component\\Units\\TextComponent)</title>
            <path fill="lightblue" stroke="black" stroke-width="0.5"
                  d="M214,-81C214,-81 244,-81 244,-81 250,-81 256,-87 256,-93 256,-93 256,-106 256,-106 256,-112 250,-118 244,-118 244,-118 214,-118 214,-118 208,-118 202,-112 202,-106 202,-106 202,-93 202,-93 202,-87 208,-81 214,-81"/>
            <text text-anchor="start" x="215" y="-96.8" font-family="sans-serif" font-weight="bold" font-size="14.00">
                Text
            </text>
        </g><!-- /Units&#45;&gt;Units/Text (Tollwerk\\TwTollwerk\\Component\\Units\\TextComponent) -->
        <g id="edge5" class="edge">
            <title>/Units&#45;&gt;Units/Text (Tollwerk\\TwTollwerk\\Component\\Units\\TextComponent)</title>
            <path fill="none" stroke="darkgrey" stroke-width="0.5"
                  d="M200.99,-160.8C206.873,-148.136 214.847,-130.968 220.783,-118.189"/>
        </g><!-- Units/Rule (Tollwerk\\TwTollwerk\\Component\\Units\\RuleComponent) -->
        <g id="node7" class="node">
            <title>Units/Rule (Tollwerk\\TwTollwerk\\Component\\Units\\RuleComponent)</title>
            <path fill="lightblue" stroke="black" stroke-width="0.5"
                  d="M286,-81C286,-81 316,-81 316,-81 322,-81 328,-87 328,-93 328,-93 328,-106 328,-106 328,-112 322,-118 316,-118 316,-118 286,-118 286,-118 280,-118 274,-112 274,-106 274,-106 274,-93 274,-93 274,-87 280,-81 286,-81"/>
            <text text-anchor="start" x="286" y="-96.8" font-family="sans-serif" font-weight="bold" font-size="14.00">
                Rule
            </text>
        </g><!-- /Units&#45;&gt;Units/Rule (Tollwerk\\TwTollwerk\\Component\\Units\\RuleComponent) -->
        <g id="edge6" class="edge">
            <title>/Units&#45;&gt;Units/Rule (Tollwerk\\TwTollwerk\\Component\\Units\\RuleComponent)</title>
            <path fill="none" stroke="darkgrey" stroke-width="0.5"
                  d="M216.701,-160.992C234.46,-148.249 258.682,-130.867 276.606,-118.005"/>
        </g><!-- Core/Link (Tollwerk\\TwTollwerk\\Component\\Core\\LinkComponent) -->
        <g id="node9" class="node">
            <title>Core/Link (Tollwerk\\TwTollwerk\\Component\\Core\\LinkComponent)</title>
            <path fill="lightblue" stroke="black" stroke-width="0.5"
                  d="M358,-81C358,-81 388,-81 388,-81 394,-81 400,-87 400,-93 400,-93 400,-106 400,-106 400,-112 394,-118 388,-118 388,-118 358,-118 358,-118 352,-118 346,-112 346,-106 346,-106 346,-93 346,-93 346,-87 352,-81 358,-81"/>
            <text text-anchor="start" x="359" y="-96.8" font-family="sans-serif" font-weight="bold" font-size="14.00">
                Link
            </text>
        </g><!-- /Core&#45;&gt;Core/Link (Tollwerk\\TwTollwerk\\Component\\Core\\LinkComponent) -->
        <g id="edge8" class="edge">
            <title>/Core&#45;&gt;Core/Link (Tollwerk\\TwTollwerk\\Component\\Core\\LinkComponent)</title>
            <path fill="none" stroke="darkgrey" stroke-width="0.5"
                  d="M478.838,-164.069C459.166,-153.76 432.084,-139.116 409,-125 405.517,-122.87 401.902,-120.549 398.365,-118.212"/>
        </g><!-- Core/Headings (Tollwerk\\TwTollwerk\\Component\\Core\\HeadingsComponent) -->
        <g id="node10" class="node">
            <title>Core/Headings (Tollwerk\\TwTollwerk\\Component\\Core\\HeadingsComponent)</title>
            <path fill="lightblue" stroke="black" stroke-width="0.5"
                  d="M430.5,-81C430.5,-81 489.5,-81 489.5,-81 495.5,-81 501.5,-87 501.5,-93 501.5,-93 501.5,-106 501.5,-106 501.5,-112 495.5,-118 489.5,-118 489.5,-118 430.5,-118 430.5,-118 424.5,-118 418.5,-112 418.5,-106 418.5,-106 418.5,-93 418.5,-93 418.5,-87 424.5,-81 430.5,-81"/>
            <text text-anchor="start" x="429.5" y="-96.8" font-family="sans-serif" font-weight="bold" font-size="14.00">
                Headings
            </text>
        </g><!-- /Core&#45;&gt;Core/Headings (Tollwerk\\TwTollwerk\\Component\\Core\\HeadingsComponent) -->
        <g id="edge9" class="edge">
            <title>/Core&#45;&gt;Core/Headings (Tollwerk\\TwTollwerk\\Component\\Core\\HeadingsComponent)</title>
            <path fill="none" stroke="darkgrey" stroke-width="0.5"
                  d="M495.791,-160.8C488.274,-148.136 478.084,-130.968 470.499,-118.189"/>
        </g><!-- Core/Colors (Tollwerk\\TwTollwerk\\Component\\Core\\ColorsComponent) -->
        <g id="node11" class="node">
            <title>Core/Colors (Tollwerk\\TwTollwerk\\Component\\Core\\ColorsComponent)</title>
            <path fill="lightblue" stroke="black" stroke-width="0.5"
                  d="M531.5,-81C531.5,-81 572.5,-81 572.5,-81 578.5,-81 584.5,-87 584.5,-93 584.5,-93 584.5,-106 584.5,-106 584.5,-112 578.5,-118 572.5,-118 572.5,-118 531.5,-118 531.5,-118 525.5,-118 519.5,-112 519.5,-106 519.5,-106 519.5,-93 519.5,-93 519.5,-87 525.5,-81 531.5,-81"/>
            <text text-anchor="start" x="530.5" y="-96.8" font-family="sans-serif" font-weight="bold" font-size="14.00">
                Colors
            </text>
        </g><!-- /Core&#45;&gt;Core/Colors (Tollwerk\\TwTollwerk\\Component\\Core\\ColorsComponent) -->
        <g id="edge10" class="edge">
            <title>/Core&#45;&gt;Core/Colors (Tollwerk\\TwTollwerk\\Component\\Core\\ColorsComponent)</title>
            <path fill="none" stroke="darkgrey" stroke-width="0.5"
                  d="M516.209,-160.8C523.726,-148.136 533.916,-130.968 541.501,-118.189"/>
        </g><!-- Core/Backdrop (Tollwerk\\TwTollwerk\\Component\\Core\\BackdropComponent) -->
        <g id="node12" class="node">
            <title>Core/Backdrop (Tollwerk\\TwTollwerk\\Component\\Core\\BackdropComponent)</title>
            <path fill="lightblue" stroke="black" stroke-width="0.5"
                  d="M614.5,-81C614.5,-81 675.5,-81 675.5,-81 681.5,-81 687.5,-87 687.5,-93 687.5,-93 687.5,-106 687.5,-106 687.5,-112 681.5,-118 675.5,-118 675.5,-118 614.5,-118 614.5,-118 608.5,-118 602.5,-112 602.5,-106 602.5,-106 602.5,-93 602.5,-93 602.5,-87 608.5,-81 614.5,-81"/>
            <text text-anchor="start" x="613.5" y="-96.8" font-family="sans-serif" font-weight="bold" font-size="14.00">
                Backdrop
            </text>
        </g><!-- /Core&#45;&gt;Core/Backdrop (Tollwerk\\TwTollwerk\\Component\\Core\\BackdropComponent) -->
        <g id="edge11" class="edge">
            <title>/Core&#45;&gt;Core/Backdrop (Tollwerk\\TwTollwerk\\Component\\Core\\BackdropComponent)</title>
            <path fill="none" stroke="darkgrey" stroke-width="0.5"
                  d="M533.131,-162.873C556.201,-150.01 589.343,-131.532 613.565,-118.027"/>
        </g><!-- Content Elements/Image (Tollwerk\\TwTollwerk\\Component\\ContentElements\\ImageComponent) -->
        <g id="node14" class="node">
            <title>Content Elements/Image (Tollwerk\\TwTollwerk\\Component\\ContentElements\\ImageComponent)</title>
            <path fill="lightpink" stroke="black" stroke-width="0.5"
                  d="M718,-74.5C718,-74.5 826,-74.5 826,-74.5 832,-74.5 838,-80.5 838,-86.5 838,-86.5 838,-112.5 838,-112.5 838,-118.5 832,-124.5 826,-124.5 826,-124.5 718,-124.5 718,-124.5 712,-124.5 706,-118.5 706,-112.5 706,-112.5 706,-86.5 706,-86.5 706,-80.5 712,-74.5 718,-74.5"/>
            <text text-anchor="start" x="717" y="-103.3" font-family="sans-serif" font-weight="bold" font-size="14.00">
                Image
            </text>
            <text text-anchor="start" x="717" y="-89.3" font-family="sans-serif" font-size="14.00">• Image (lazyload)
            </text>
        </g><!-- /Content Elements&#45;&gt;Content Elements/Image (Tollwerk\\TwTollwerk\\Component\\ContentElements\\ImageComponent) -->
        <g id="edge13" class="edge">
            <title>/Content Elements&#45;&gt;Content Elements/Image
                (Tollwerk\\TwTollwerk\\Component\\ContentElements\\ImageComponent)
            </title>
            <path fill="none" stroke="darkgrey" stroke-width="0.5"
                  d="M772,-160.8C772,-150.187 772,-136.411 772,-124.706"/>
        </g><!-- Content Elements/Text (Tollwerk\\TwTollwerk\\Component\\ContentElements\\TextComponent) -->
        <g id="node15" class="node">
            <title>Content Elements/Text (Tollwerk\\TwTollwerk\\Component\\ContentElements\\TextComponent)</title>
            <path fill="lightpink" stroke="black" stroke-width="0.5"
                  d="M868,-81C868,-81 898,-81 898,-81 904,-81 910,-87 910,-93 910,-93 910,-106 910,-106 910,-112 904,-118 898,-118 898,-118 868,-118 868,-118 862,-118 856,-112 856,-106 856,-106 856,-93 856,-93 856,-87 862,-81 868,-81"/>
            <text text-anchor="start" x="869" y="-96.8" font-family="sans-serif" font-weight="bold" font-size="14.00">
                Text
            </text>
        </g><!-- /Content Elements&#45;&gt;Content Elements/Text (Tollwerk\\TwTollwerk\\Component\\ContentElements\\TextComponent) -->
        <g id="edge15" class="edge">
            <title>/Content Elements&#45;&gt;Content Elements/Text
                (Tollwerk\\TwTollwerk\\Component\\ContentElements\\TextComponent)
            </title>
            <path fill="none" stroke="darkgrey" stroke-width="0.5"
                  d="M796.359,-160.992C814.611,-148.249 839.507,-130.867 857.928,-118.005"/>
        </g><!-- Content Elements/Image (Tollwerk\\TwTollwerk\\Component\\ContentElements\\ImageComponent)&#45;&gt;Units/Image (Tollwerk\\TwTollwerk\\Component\\Units\\ImageComponent) -->
        <g id="edge14" class="edge">
            <title>Content Elements/Image (Tollwerk\\TwTollwerk\\Component\\ContentElements\\ImageComponent)&#45;&gt;Units/Image
                (Tollwerk\\TwTollwerk\\Component\\Units\\ImageComponent)
            </title>
            <path fill="none" stroke="black"
                  d="M705.866,-76.4555C702.878,-75.5986 699.912,-74.7755 697,-74 620.52,-53.6335 529.693,-36.2986 478.153,-27.0882"/>
            <polygon fill="black" stroke="black"
                     points="478.536,-23.6014 468.078,-25.3019 477.314,-30.494 478.536,-23.6014"/>
        </g>
    </g>
</svg>
