<?xml version="1.0" encoding="UTF-8" standalone="no"?><!DOCTYPE svg PUBLIC "-//W3C//DTD SVG 1.1//EN" "http://www.w3.org/Graphics/SVG/1.1/DTD/svg11.dtd"><!-- Generated by graphviz version 2.38.0 (20140413.2041) --><!-- Title: Components Pages: 1 --><svg width="212pt" height="278pt" viewBox="0.00 0.00 212.00 278.00" xmlns="http://www.w3.org/2000/svg" xmlns:xlink="http://www.w3.org/1999/xlink"><g id="graph0" class="graph" transform="scale(1 1) rotate(0) translate(4 274)"><title>Components</title><!-- / --><g id="node1" class="node"><title>/</title><path fill="lightgrey" stroke="black" stroke-width="0.5" d="M106,-233.5C106,-233.5 136,-233.5 136,-233.5 142,-233.5 148,-239.5 148,-245.5 148,-245.5 148,-257.5 148,-257.5 148,-263.5 142,-269.5 136,-269.5 136,-269.5 106,-269.5 106,-269.5 100,-269.5 94,-263.5 94,-257.5 94,-257.5 94,-245.5 94,-245.5 94,-239.5 100,-233.5 106,-233.5"/><text text-anchor="middle" x="121" y="-247.8" font-family="sans-serif" font-size="14.00">/</text></g><!-- /Content Elements --><g id="node2" class="node"><title>/Content Elements</title><text text-anchor="middle" x="71" y="-175.3" font-family="sans-serif" font-size="14.00">Content Elements</text></g><!-- /&#45;&gt;/Content Elements --><g id="edge1" class="edge"><title>/&#45;&gt;/Content Elements</title><path fill="none" stroke="darkgrey" stroke-width="0.5" d="M108.896,-233.434C101.151,-222.513 91.1307,-208.384 83.3395,-197.399"/></g><!-- /Units --><g id="node5" class="node"><title>/Units</title><text text-anchor="middle" x="177" y="-95.8" font-family="sans-serif" font-size="14.00">Units</text></g><!-- /&#45;&gt;/Units --><g id="edge4" class="edge"><title>/&#45;&gt;/Units</title><path fill="none" stroke="darkgrey" stroke-width="0.5" d="M127.924,-233.196C132.075,-222.742 137.418,-209.135 142,-197 152.449,-169.323 164.063,-136.964 170.938,-117.633"/></g><!-- Content Elements/Image (Tollwerk\\TwTollwerk\\Component\\ContentElements\\ImageComponent) --><g id="node3" class="node"><title>Content Elements/Image (Tollwerk\\TwTollwerk\\Component\\ContentElements\\ImageComponent)</title><path fill="lightpink" stroke="black" stroke-width="1.5" d="M12,-74.5C12,-74.5 120,-74.5 120,-74.5 126,-74.5 132,-80.5 132,-86.5 132,-86.5 132,-112.5 132,-112.5 132,-118.5 126,-124.5 120,-124.5 120,-124.5 12,-124.5 12,-124.5 6,-124.5 0,-118.5 0,-112.5 0,-112.5 0,-86.5 0,-86.5 0,-80.5 6,-74.5 12,-74.5"/><text text-anchor="start" x="11" y="-103.3" font-family="sans-serif" font-weight="bold" font-size="14.00">Image</text><text text-anchor="start" x="11" y="-89.3" font-family="sans-serif" font-size="14.00">• Image (lazyload)</text></g><!-- /Content Elements&#45;&gt;Content Elements/Image (Tollwerk\\TwTollwerk\\Component\\ContentElements\\ImageComponent) --><g id="edge2" class="edge"><title>/Content Elements&#45;&gt;Content Elements/Image (Tollwerk\\TwTollwerk\\Component\\ContentElements\\ImageComponent)</title><path fill="none" stroke="darkgrey" stroke-width="0.5" d="M69.8903,-160.8C69.2056,-150.187 68.3168,-136.411 67.5617,-124.706"/></g><!-- Units/Image (Tollwerk\\TwTollwerk\\Component\\Units\\ImageComponent) --><g id="node4" class="node"><title>Units/Image (Tollwerk\\TwTollwerk\\Component\\Units\\ImageComponent)</title><path fill="lightblue" stroke="black" stroke-width="0.5" d="M102,-0.5C102,-0.5 140,-0.5 140,-0.5 146,-0.5 152,-6.5 152,-12.5 152,-12.5 152,-25.5 152,-25.5 152,-31.5 146,-37.5 140,-37.5 140,-37.5 102,-37.5 102,-37.5 96,-37.5 90,-31.5 90,-25.5 90,-25.5 90,-12.5 90,-12.5 90,-6.5 96,-0.5 102,-0.5"/><text text-anchor="start" x="101" y="-16.3" font-family="sans-serif" font-weight="bold" font-size="14.00">Image</text></g><!-- Content Elements/Image (Tollwerk\\TwTollwerk\\Component\\ContentElements\\ImageComponent)&#45;&gt;Units/Image (Tollwerk\\TwTollwerk\\Component\\Units\\ImageComponent) --><g id="edge3" class="edge"><title>Content Elements/Image (Tollwerk\\TwTollwerk\\Component\\ContentElements\\ImageComponent)&#45;&gt;Units/Image (Tollwerk\\TwTollwerk\\Component\\Units\\ImageComponent)</title><path fill="none" stroke="black" d="M83.1009,-74.0924C89.314,-65.2245 96.3578,-55.1712 102.673,-46.1581"/><polygon fill="black" stroke="black" points="105.581,-48.1063 108.453,-37.908 99.8484,-44.0895 105.581,-48.1063"/></g><!-- /Units&#45;&gt;Units/Image (Tollwerk\\TwTollwerk\\Component\\Units\\ImageComponent) --><g id="edge5" class="edge"><title>/Units&#45;&gt;Units/Image (Tollwerk\\TwTollwerk\\Component\\Units\\ImageComponent)</title><path fill="none" stroke="darkgrey" stroke-width="0.5" d="M164.849,-81.4667C155.584,-68.48 142.868,-50.6549 133.515,-37.5436"/></g></g></svg>